<?xml version="1.0" encoding="UTF-8"?>
<svg id="Layer_1" data-name="Layer 1" xmlns="http://www.w3.org/2000/svg" viewBox="0 0 1928.98 457.93">
  <defs>
    <style>
      .cls-1 {
        fill: #fff;
      }
    </style>
  </defs>
  <g id="_01_BLIP_MAIN_LOGO" data-name="01_BLIP MAIN LOGO">
    <g>
      <polygon class="cls-1" points="1157.33 117.03 1157.33 133.84 1123.72 133.84 1123.72 100.23 1140.52 100.23 1140.52 117.03 1157.33 117.03"/>
      <rect class="cls-1" x="1157.32" y="83.43" width="16.8" height="16.8"/>
      <path class="cls-1" d="M841.47,61.04V9.31h-86.62v124.51h108.52V61.04h-21.9ZM776.76,31.21h42.82v29.82h-42.82v-29.82ZM841.47,111.92h-64.72v-28.98h64.72v28.98Z"/>
      <polygon class="cls-1" points="888.7 9.31 910.38 9.31 910.38 111.93 966.6 111.93 966.6 133.83 888.7 133.83 888.7 9.31"/>
      <rect class="cls-1" x="989.32" y="9.31" width="21.9" height="124.51"/>
      <path class="cls-1" d="M1037.1,9.31v124.51h21.81v-50.44h64.81V9.31h-86.62ZM1101.82,61.52h-42.91v-30.26h42.91v30.26Z"/>
    </g>
  </g>
  <g>
    <path class="cls-1" d="M212.11,186.92l85.61,261.7h-62.06l-16.82-55.33H90.23l-17.57,55.33H11.35L97.34,186.92h57.57l-50.1,158.51h99.07l-48.97-158.51h57.2Z"/>
    <path class="cls-1" d="M419.6,448.62c-21.19,0-40.13-2.93-56.83-8.79-16.7-5.85-30.84-14.39-42.43-25.61-11.59-11.22-20.44-24.92-26.54-41.12-6.11-16.2-9.16-34.52-9.16-54.96s3.24-38.75,9.72-54.96c6.48-16.2,15.7-29.97,27.67-41.31,11.96-11.34,26.36-20,43.18-25.98,16.82-5.98,35.7-8.97,56.64-8.97,15.7,0,30.97,1.68,45.8,5.05,14.83,3.37,28.23,8.79,40.19,16.26,11.96,7.48,21.99,17.14,30.09,28.97,8.1,11.84,13.27,26.11,15.52,42.81h-58.7c-2-6.97-5.67-12.96-11.03-17.94-5.36-4.98-11.59-9.1-18.69-12.34-7.1-3.24-14.52-5.61-22.24-7.1-7.73-1.5-15.08-2.24-22.06-2.24-25.92,0-45.3,6.79-58.13,20.38-12.84,13.59-19.25,32.59-19.25,57.01s6.48,43.12,19.44,56.83c12.96,13.71,32.27,20.56,57.95,20.56,6.98,0,14.45-.81,22.43-2.43,7.97-1.62,15.52-4.11,22.62-7.48,7.1-3.36,13.46-7.54,19.07-12.52,5.61-4.98,9.4-10.96,11.4-17.95h57.57c-2.75,16.7-8.29,30.97-16.64,42.81-8.35,11.84-18.63,21.56-30.84,29.16-12.21,7.61-25.8,13.15-40.75,16.64-14.95,3.49-30.28,5.23-45.98,5.23Z"/>
    <path class="cls-1" d="M745.23,186.92l85.61,261.7h-62.06l-16.82-55.33h-128.61l-17.57,55.33h-61.31l85.99-261.7h57.57l-50.1,158.51h99.07l-48.97-158.51h57.2Z"/>
    <path class="cls-1" d="M963.18,448.62h-115.52V186.92h112.16c19.94,0,37.88,3.31,53.83,9.91,15.95,6.61,29.59,15.7,40.94,27.29,11.34,11.59,20.06,25.42,26.17,41.5,6.1,16.08,9.16,33.71,9.16,52.9s-3.05,36.77-9.16,52.71c-6.11,15.95-14.71,29.66-25.8,41.12-11.09,11.47-24.43,20.38-40,26.73-15.58,6.36-32.84,9.53-51.78,9.53ZM904.86,240.01v155.52h52.71c12.21,0,22.8-1.93,31.78-5.79,8.97-3.86,16.45-9.16,22.43-15.89,5.98-6.73,10.4-14.83,13.27-24.3,2.86-9.47,4.3-19.81,4.3-31.03,0-24.42-6.48-43.61-19.44-57.57-12.96-13.96-31.53-20.94-55.7-20.94h-49.35Z"/>
    <path class="cls-1" d="M1402.08,448.62h-55.7V186.92h109.54l51.22,261.7,45.61-261.7h108.42v261.7h-55.33V189.17h-.37l-45.24,259.45h-106.55l-51.22-260.95h-.37v260.95Z"/>
    <path class="cls-1" d="M1751.26,349.18l-69.54-162.25h63.18l45.98,107.67h19.81l43.74-107.67h63.18l-66.92,162.25h-20.94v99.45h-57.57v-99.45h-20.94Z"/>
    <g>
      <rect class="cls-1" x="1110.48" y="291.49" width="186.08" height="49.84"/>
      <rect class="cls-1" x="1110.48" y="186.92" width="215.34" height="53.09"/>
      <rect class="cls-1" x="1110.48" y="395.53" width="215.34" height="53.09"/>
    </g>
  </g>
</svg>