<svg viewBox="0 0 1928.98 457.93" xmlns="http://www.w3.org/2000/svg"><g fill="#fff"><path d="m1157.33 117.03v16.81h-33.61v-33.61h16.8v16.8z"/><path d="m1157.32 83.43h16.8v16.8h-16.8z"/><path d="m841.47 61.04v-51.73h-86.62v124.51h108.52v-72.78zm-64.71-29.83h42.82v29.82h-42.82zm64.71 80.71h-64.72v-28.98h64.72z"/><path d="m888.7 9.31h21.68v102.62h56.22v21.9h-77.9z"/><path d="m989.32 9.31h21.9v124.51h-21.9z"/><path d="m1037.1 9.31v124.51h21.81v-50.44h64.81v-74.07zm64.72 52.21h-42.91v-30.26h42.91z"/><path d="m212.11 186.92 85.61 261.7h-62.06l-16.82-55.33h-128.61l-17.57 55.33h-61.31l85.99-261.7h57.57l-50.1 158.51h99.07l-48.97-158.51z"/><path d="m419.6 448.62c-21.19 0-40.13-2.93-56.83-8.79-16.7-5.85-30.84-14.39-42.43-25.61s-20.44-24.92-26.54-41.12c-6.11-16.2-9.16-34.52-9.16-54.96s3.24-38.75 9.72-54.96c6.48-16.2 15.7-29.97 27.67-41.31 11.96-11.34 26.36-20 43.18-25.98s35.7-8.97 56.64-8.97c15.7 0 30.97 1.68 45.8 5.05s28.23 8.79 40.19 16.26c11.96 7.48 21.99 17.14 30.09 28.97 8.1 11.84 13.27 26.11 15.52 42.81h-58.7c-2-6.97-5.67-12.96-11.03-17.94s-11.59-9.1-18.69-12.34-14.52-5.61-22.24-7.1c-7.73-1.5-15.08-2.24-22.06-2.24-25.92 0-45.3 6.79-58.13 20.38-12.84 13.59-19.25 32.59-19.25 57.01s6.48 43.12 19.44 56.83 32.27 20.56 57.95 20.56c6.98 0 14.45-.81 22.43-2.43 7.97-1.62 15.52-4.11 22.62-7.48 7.1-3.36 13.46-7.54 19.07-12.52s9.4-10.96 11.4-17.95h57.57c-2.75 16.7-8.29 30.97-16.64 42.81s-18.63 21.56-30.84 29.16c-12.21 7.61-25.8 13.15-40.75 16.64s-30.28 5.23-45.98 5.23z"/><path d="m745.23 186.92 85.61 261.7h-62.06l-16.82-55.33h-128.61l-17.57 55.33h-61.31l85.99-261.7h57.57l-50.1 158.51h99.07l-48.97-158.51z"/><path d="m963.18 448.62h-115.52v-261.7h112.16c19.94 0 37.88 3.31 53.83 9.91 15.95 6.61 29.59 15.7 40.94 27.29 11.34 11.59 20.06 25.42 26.17 41.5 6.1 16.08 9.16 33.71 9.16 52.9s-3.05 36.77-9.16 52.71c-6.11 15.95-14.71 29.66-25.8 41.12-11.09 11.47-24.43 20.38-40 26.73-15.58 6.36-32.84 9.53-51.78 9.53zm-58.32-208.61v155.52h52.71c12.21 0 22.8-1.93 31.78-5.79 8.97-3.86 16.45-9.16 22.43-15.89s10.4-14.83 13.27-24.3c2.86-9.47 4.3-19.81 4.3-31.03 0-24.42-6.48-43.61-19.44-57.57s-31.53-20.94-55.7-20.94z"/><path d="m1402.08 448.62h-55.7v-261.7h109.54l51.22 261.7 45.61-261.7h108.42v261.7h-55.33v-259.45h-.37l-45.24 259.45h-106.55l-51.22-260.95h-.37v260.95z"/><path d="m1751.26 349.18-69.54-162.25h63.18l45.98 107.67h19.81l43.74-107.67h63.18l-66.92 162.25h-20.94v99.45h-57.57v-99.45h-20.94z"/><path d="m1110.48 291.49h186.08v49.84h-186.08z"/><path d="m1110.48 186.92h215.34v53.09h-215.34z"/><path d="m1110.48 395.53h215.34v53.09h-215.34z"/></g></svg>