<svg fill="none" height="13" viewBox="0 0 11 13" width="11" xmlns="http://www.w3.org/2000/svg"><path d="m1.375 11.5585h2.0625v-3.42861c0-.19428.066-.35703.198-.48823s.29517-.19703.4895-.19748h2.75c.19479 0 .35819.06583.49019.19748.132.13166.19777.2944.19731.48823v3.42861h2.0625v-6.17146l-4.125-3.08572-4.125 3.08572zm-1.375 0v-6.17146c0-.21715.0488124-.42286.146437-.61715.097625-.19428.232146-.35428.403563-.48l4.125-3.08571c.24062-.18286.51562-.274287.825-.274287.30937 0 .58437.091427.825.274287l4.125 3.08571c.1719.12572.3066.28572.4042.48.0977.19429.1463.4.1458.61715v6.17146c0 .3771-.1348.7001-.4043.9689s-.593.4029-.9707.4025h-2.75c-.19479 0-.35796-.0658-.4895-.1975s-.19754-.2944-.198-.4882v-3.42859h-1.375v3.42859c0 .1943-.066.3572-.198.4889-.132.1316-.29517.1972-.4895.1968h-2.75c-.378125 0-.701709-.1342-.97075-.4025-.269042-.2684-.40379167-.5913-.40425-.9689z" fill="#fff"/></svg>