<svg fill="none" height="14" viewBox="0 0 12 14" width="12" xmlns="http://www.w3.org/2000/svg"><path clip-rule="evenodd" d="m2.66675.358293c.74455-.2982099 1.55832-.3795049 2.34714-.234478.78883.145026 1.52047.510446 2.11026 1.053975.58979.54353 1.01363 1.24295 1.22246 2.01733.20884.77438.19414 1.59207-.04239 2.35844l2.66528 2.25523c.2401.20402.4353.45557.5733.73879s.2159.59197.2286.90677c.0128.31481-.0398.62885-.1545.92235-.1146.2934-.2888.5599-.5116.7827s-.4893.397-.7828.5117c-.2934.1146-.60747.1672-.92227.1545-.31481-.0128-.62355-.0907-.90677-.2287s-.53477-.3332-.7388-.5733l-2.25462-2.66526c-.76644.23662-1.58422.25135-2.35869.04249-.77447-.20885-1.47396-.63275-2.01752-1.22263-.543553-.58989-.908953-1.32164-1.0539057-2.11057-.1449523-.78893-.06352985-1.60278.2348437-2.34735.217152-.54228.897722-.61082 1.251352-.22625l1.94285 2.10965.8771-.1747.1759-.87892-2.11086-1.93981c-.38457-.35363-.31724-1.034805.22564-1.251957zm1.21739.931687 1.67595 1.54069c.19532.17955.28266.44765.2305.70666l-.28509 1.42786c-.02937.14695-.10163.28189-.20764.3878-.10602.10591-.24104.17802-.38801.20725l-1.42544.28326c-.12758.02537-.25953.01749-.38318-.02287-.12365-.04037-.23484-.11187-.32287-.20762l-1.54311-1.67535c-.06282.52174.01096 1.05085.2141 1.5355.20314.48466.52868.90824.94473 1.22927.41605.32102.90835.52848 1.42868.60206.52032.07358 1.05084.01075 1.53959-.18234.14827-.05854.31114-.06926.4658-.03064.15467.03861.29339.12461.39674.24598l2.45661 2.90301c.09528.1131.213.2051.3457.2703s.2775.1021.42521.1084.29512-.0182.43289-.0719c.1378-.0536.2629-.1353.3674-.2398.1046-.1046.1863-.2297.2399-.36747.0537-.13776.0781-.28517.0718-.43289-.0063-.14771-.0432-.2925-.1083-.42521-.0652-.1327-.1572-.25042-.2703-.34569l-2.90244-2.45661c-.12136-.10336-.20737-.24208-.24598-.39674-.03861-.15467-.0279-.31753.03065-.4658.19346-.48875.25657-1.01938.18315-1.53987s-.28086-1.01296-.60196-1.42911c-.32111-.41616-.74487-.74172-1.22972-.94475-.48485-.20302-1.01414-.27655-1.53597-.21338z" fill="#fff" fill-rule="evenodd"/></svg>