<svg width="14" height="11" viewBox="0 0 14 11" fill="none" xmlns="http://www.w3.org/2000/svg">
<path d="M4.7 6.85162C3.12886 6.85162 0 7.6372 0 9.20162V10.3766H9.4V9.20162C9.4 7.6372 6.27114 6.85162 4.7 6.85162ZM1.57114 9.03377C2.13514 8.64434 3.49814 8.19448 4.7 8.19448C5.90186 8.19448 7.26486 8.64434 7.82886 9.03377H1.57114ZM4.7 5.67662C5.99586 5.67662 7.05 4.62248 7.05 3.32662C7.05 2.03077 5.99586 0.976624 4.7 0.976624C3.40414 0.976624 2.35 2.03077 2.35 3.32662C2.35 4.62248 3.40414 5.67662 4.7 5.67662ZM4.7 2.31948C5.25729 2.31948 5.70714 2.76934 5.70714 3.32662C5.70714 3.88391 5.25729 4.33377 4.7 4.33377C4.14271 4.33377 3.69286 3.88391 3.69286 3.32662C3.69286 2.76934 4.14271 2.31948 4.7 2.31948ZM9.42686 6.89191C10.2057 7.45591 10.7429 8.20791 10.7429 9.20162V10.3766H13.4286V9.20162C13.4286 7.84534 11.0786 7.0732 9.42686 6.89191ZM8.72857 5.67662C10.0244 5.67662 11.0786 4.62248 11.0786 3.32662C11.0786 2.03077 10.0244 0.976624 8.72857 0.976624C8.366 0.976624 8.03029 1.06391 7.72143 1.21162C8.14443 1.80919 8.39286 2.54105 8.39286 3.32662C8.39286 4.1122 8.14443 4.84405 7.72143 5.44162C8.03029 5.58934 8.366 5.67662 8.72857 5.67662Z" fill="white"/>
</svg>
