<svg fill="none" height="13" viewBox="0 0 14 13" width="14" xmlns="http://www.w3.org/2000/svg"><g stroke="#fff" stroke-linecap="round" stroke-linejoin="round"><path d="m3.89474 3.94854c1.59872 0 2.89474-.64801 2.89474-1.44737s-1.29602-1.44737-2.89474-1.44737-2.89474.64801-2.89474 1.44737 1.29602 1.44737 2.89474 1.44737z"/><path d="m1 2.50113v2.02632c0 .79923 1.29597 1.44736 2.89474 1.44736 1.59876 0 2.89474-.64813 2.89474-1.44736v-2.02632"/><path d="m1 4.52744v2.02631c0 .79924 1.29597 1.44737 2.89474 1.44737 1.59876 0 2.89474-.64813 2.89474-1.44737v-2.02631"/><path d="m1 6.5538v2.02632c0 .79924 1.29597 1.44738 2.89474 1.44738 1.59876 0 2.89474-.64814 2.89474-1.44738v-2.02632"/><path d="m1 8.58017v2.02633c0 .7992 1.29597 1.4474 2.89474 1.4474 1.59876 0 2.89474-.6482 2.89474-1.4474v-2.02633"/><path d="m9.68421 8.00118c1.59869 0 2.89469-.64801 2.89469-1.44737s-1.296-1.44736-2.89469-1.44736c-1.59872 0-2.89474.648-2.89474 1.44736s1.29602 1.44737 2.89474 1.44737z"/><path d="m6.78947 6.5538v2.02632c0 .79924 1.29598 1.44738 2.89474 1.44738 1.59879 0 2.89469-.64814 2.89469-1.44738v-2.02632"/><path d="m6.78947 8.58017v2.02633c0 .7992 1.29598 1.4474 2.89474 1.4474 1.59879 0 2.89469-.6482 2.89469-1.4474v-2.02633"/></g></svg>