<svg fill="none" height="11" viewBox="0 0 14 11" width="14" xmlns="http://www.w3.org/2000/svg"><path d="m4.7 6.85162c-1.57114 0-4.7.78558-4.7 2.35v1.17498h9.4v-1.17498c0-1.56442-3.12886-2.35-4.7-2.35zm-3.12886 2.18215c.564-.38943 1.927-.83929 3.12886-.83929s2.56486.44986 3.12886.83929zm3.12886-3.35715c1.29586 0 2.35-1.05414 2.35-2.35 0-1.29585-1.05414-2.349996-2.35-2.349996s-2.35 1.054146-2.35 2.349996c0 1.29586 1.05414 2.35 2.35 2.35zm0-3.35714c.55729 0 1.00714.44986 1.00714 1.00714 0 .55729-.44985 1.00715-1.00714 1.00715s-1.00714-.44986-1.00714-1.00715c0-.55728.44985-1.00714 1.00714-1.00714zm4.72686 4.57243c.77884.564 1.31604 1.316 1.31604 2.30971v1.17498h2.6857v-1.17498c0-1.35628-2.35-2.12842-4.00174-2.30971zm-.69829-1.21529c1.29583 0 2.35003-1.05414 2.35003-2.35 0-1.29585-1.0542-2.349996-2.35003-2.349996-.36257 0-.69828.087286-1.00714.234996.423.59757.67143 1.32943.67143 2.115 0 .78558-.24843 1.51743-.67143 2.115.30886.14772.64457.235 1.00714.235z" fill="#fff"/></svg>