<svg width="13" height="12" viewBox="0 0 13 12" fill="none" xmlns="http://www.w3.org/2000/svg">
<path d="M6.5 6.55C7.07865 6.55 7.63361 6.31822 8.04278 5.90564C8.45195 5.49306 8.68182 4.93348 8.68182 4.35C8.68182 3.76652 8.45195 3.20695 8.04278 2.79437C7.63361 2.38178 7.07865 2.15 6.5 2.15C5.92135 2.15 5.36639 2.38178 4.95722 2.79437C4.54805 3.20695 4.31818 3.76652 4.31818 4.35C4.31818 4.93348 4.54805 5.49306 4.95722 5.90564C5.36639 6.31822 5.92135 6.55 6.5 6.55ZM6.5 6.55C5.63202 6.55 4.79959 6.89768 4.18583 7.51655C3.57208 8.13542 3.22727 8.97479 3.22727 9.85V11.5M6.5 6.55C7.36798 6.55 8.20041 6.89768 8.81417 7.51655C9.42792 8.13542 9.77273 8.97479 9.77273 9.85V11.5M7.04545 2.15C7.26582 1.2348 8.14455 0.5 9.22727 0.5C10.412 0.5 11.3982 1.4845 11.4091 2.7C11.3982 3.9155 10.412 4.9 9.22727 4.9M9.22727 4.9H8.68182M9.22727 4.9C11.0207 4.9 12.5 6.3773 12.5 8.2V9.3M5.95455 2.15C5.73418 1.2348 4.85545 0.5 3.77273 0.5C2.588 0.5 1.60182 1.4845 1.59091 2.7C1.60182 3.9155 2.588 4.9 3.77273 4.9M3.77273 4.9H4.31818M3.77273 4.9C1.97927 4.9 0.5 6.3773 0.5 8.2V9.3" stroke="white"/>
</svg>
