<svg width="11" height="11" viewBox="0 0 11 11" fill="none" xmlns="http://www.w3.org/2000/svg">
<path d="M10.4501 6.60008H9.90011V1.10001H10.4501C10.596 1.10001 10.7359 1.04207 10.839 0.93892C10.9422 0.835773 11.0001 0.695877 11.0001 0.550006C11.0001 0.404136 10.9422 0.264239 10.839 0.161093C10.7359 0.0579469 10.596 0 10.4501 0H0.550006C0.404136 0 0.264239 0.0579469 0.161093 0.161093C0.0579469 0.264239 0 0.404136 0 0.550006C0 0.695877 0.0579469 0.835773 0.161093 0.93892C0.264239 1.04207 0.404136 1.10001 0.550006 1.10001H1.10001V6.60008H0.550006C0.404136 6.60008 0.264239 6.65802 0.161093 6.76117C0.0579469 6.86432 0 7.00421 0 7.15008C0 7.29595 0.0579469 7.43585 0.161093 7.539C0.264239 7.64214 0.404136 7.70009 0.550006 7.70009H4.95006V8.3326L2.44753 9.98261C2.34486 10.0462 2.26596 10.1417 2.223 10.2546C2.18004 10.3674 2.1754 10.4913 2.20981 10.607C2.24422 10.7227 2.31576 10.8239 2.41339 10.895C2.51102 10.966 2.62932 11.003 2.75003 11.0001C2.85816 11.0014 2.96396 10.9687 3.05254 10.9066L4.95006 9.65261V10.4501C4.95006 10.596 5.008 10.7359 5.11115 10.839C5.2143 10.9422 5.35419 11.0001 5.50006 11.0001C5.64593 11.0001 5.78583 10.9422 5.88898 10.839C5.99212 10.7359 6.05007 10.596 6.05007 10.4501V9.65261L7.94759 10.9066C8.03617 10.9687 8.14196 11.0014 8.2501 11.0001C8.3676 10.9992 8.48173 10.9607 8.57576 10.8902C8.66978 10.8197 8.73876 10.721 8.77258 10.6084C8.8064 10.4959 8.80329 10.3755 8.76371 10.2648C8.72412 10.1542 8.65014 10.0592 8.5526 9.99362L6.05007 8.3436V7.70009H10.4501C10.596 7.70009 10.7359 7.64214 10.839 7.539C10.9422 7.43585 11.0001 7.29595 11.0001 7.15008C11.0001 7.00421 10.9422 6.86432 10.839 6.76117C10.7359 6.65802 10.596 6.60008 10.4501 6.60008ZM8.8001 6.60008H2.20003V1.10001H8.8001V6.60008ZM4.18555 5.64306C4.33214 5.72967 4.49929 5.77536 4.66955 5.77536C4.83982 5.77536 5.00697 5.72967 5.15356 5.64306L6.80358 4.68605C6.94464 4.59948 7.06114 4.47817 7.14197 4.33374C7.22279 4.1893 7.26522 4.02656 7.26522 3.86104C7.26522 3.69553 7.22279 3.53279 7.14197 3.38835C7.06114 3.24391 6.94464 3.12261 6.80358 3.03603L5.15356 2.07902C5.00697 1.99241 4.83982 1.94673 4.66955 1.94673C4.49929 1.94673 4.33214 1.99241 4.18555 2.07902C4.03783 2.16229 3.91538 2.28395 3.83114 2.43112C3.74691 2.57829 3.70403 2.74549 3.70704 2.91503V4.82906C3.70796 4.99488 3.75271 5.15751 3.83674 5.30046C3.92077 5.44342 4.04111 5.56161 4.18555 5.64306ZM4.80705 3.12404L6.05007 3.85004L4.79606 4.57605L4.80705 3.12404Z" fill="white"/>
</svg>
