<svg width="14" height="13" viewBox="0 0 14 13" fill="none" xmlns="http://www.w3.org/2000/svg">
<path d="M3.89474 3.94854C5.49346 3.94854 6.78948 3.30053 6.78948 2.50117C6.78948 1.70181 5.49346 1.0538 3.89474 1.0538C2.29602 1.0538 1 1.70181 1 2.50117C1 3.30053 2.29602 3.94854 3.89474 3.94854Z" stroke="white" stroke-linecap="round" stroke-linejoin="round"/>
<path d="M1 2.50113V4.52745C1 5.32668 2.29597 5.97481 3.89474 5.97481C5.4935 5.97481 6.78948 5.32668 6.78948 4.52745V2.50113" stroke="white" stroke-linecap="round" stroke-linejoin="round"/>
<path d="M1 4.52744V6.55375C1 7.35299 2.29597 8.00112 3.89474 8.00112C5.4935 8.00112 6.78948 7.35299 6.78948 6.55375V4.52744" stroke="white" stroke-linecap="round" stroke-linejoin="round"/>
<path d="M1 6.5538V8.58012C1 9.37936 2.29597 10.0275 3.89474 10.0275C5.4935 10.0275 6.78948 9.37936 6.78948 8.58012V6.5538" stroke="white" stroke-linecap="round" stroke-linejoin="round"/>
<path d="M1 8.58017V10.6065C1 11.4057 2.29597 12.0539 3.89474 12.0539C5.4935 12.0539 6.78948 11.4057 6.78948 10.6065V8.58017" stroke="white" stroke-linecap="round" stroke-linejoin="round"/>
<path d="M9.68421 8.00118C11.2829 8.00118 12.5789 7.35317 12.5789 6.55381C12.5789 5.75445 11.2829 5.10645 9.68421 5.10645C8.08549 5.10645 6.78947 5.75445 6.78947 6.55381C6.78947 7.35317 8.08549 8.00118 9.68421 8.00118Z" stroke="white" stroke-linecap="round" stroke-linejoin="round"/>
<path d="M6.78947 6.5538V8.58012C6.78947 9.37936 8.08545 10.0275 9.68421 10.0275C11.283 10.0275 12.5789 9.37936 12.5789 8.58012V6.5538" stroke="white" stroke-linecap="round" stroke-linejoin="round"/>
<path d="M6.78947 8.58017V10.6065C6.78947 11.4057 8.08545 12.0539 9.68421 12.0539C11.283 12.0539 12.5789 11.4057 12.5789 10.6065V8.58017" stroke="white" stroke-linecap="round" stroke-linejoin="round"/>
</svg>
