<svg fill="none" height="10" viewBox="0 0 11 10" width="11" xmlns="http://www.w3.org/2000/svg"><path d="m10.072 9.86c-.0706 0-.1369-.01326-.19875-.03976-.06185-.02651-.11928-.06627-.17229-.11928l-1.21924-1.21924h-5.30108c-.29155 0-.54106-.10373-.74851-.31118-.20745-.20744-.31135-.45712-.3117-.74904v-.5301h5.83118c.29156 0 .54124-.10373.74904-.31118s.31153-.45713.31118-.74904v-3.71075h.5301c.29156 0 .54127.1039.74907.3117s.3115.45731.3111.74851v6.136c0 .15903-.053.28944-.159.39122s-.2297.15249-.3711.15214zm-9.01179-4.46616.62288-.62287h5.20831v-3.71076h-5.83119zm-.530103 1.81562c-.141362 0-.265053-.05071-.371075-.15214-.1060213-.10143-.159032-.23183-.159032-.39122v-5.60589c0-.291554.103901-.541058.311703-.748507.207802-.207449.457306-.31134959.748507-.311703h5.83119c.29155 0 .54124.103901.74904.311703s.31152.457306.31117.748507v3.71076c0 .29156-.10372.54124-.31117.74904s-.45713.31152-.74904.31117h-4.77097l-1.219247 1.21925c-.053011.05301-.110439.09277-.172285.11927-.061846.02651-.12811.03976-.198791.03976z" fill="#fff"/></svg>