<svg fill="none" height="13" viewBox="0 0 12 13" width="12" xmlns="http://www.w3.org/2000/svg"><g fill="#fff"><path d="m0 3.7424c0-.7245.588-1.3125 1.3125-1.3125h9.375c.7245 0 1.3125.588 1.3125 1.3125v6.375c0 .3481-.1383.6819-.3844.9281-.2462.2461-.58.3844-.9281.3844h-9.375c-.348097 0-.681936-.1383-.928078-.3844-.246141-.2462-.384422-.58-.384422-.9281zm1.3125-.1875c-.04973 0-.09742.01976-.13258.05492-.03517.03516-.05492.08285-.05492.13258v6.375c0 .1035.084.1875.1875.1875h9.375c.0497 0 .0974-.0198.1326-.0549.0351-.0352.0549-.0829.0549-.1326v-6.375c0-.04973-.0198-.09742-.0549-.13258-.0352-.03516-.0829-.05492-.1326-.05492z"/><path d="m4.5 8.84915v-3.83775c-.00011-.03327.00862-.06596.02532-.09473.01669-.02877.04073-.05259.06966-.069.02894-.01641.06171-.02483.09497-.0244.03326.00044.06581.00971.0943.02688l3.198 1.91925c.02764.01669.0505.04023.06636.06835.01587.02812.02421.05986.02421.09215 0 .03228-.00834.06402-.02421.09214-.01586.02812-.03872.05167-.06636.06836l-3.198 1.91925c-.02844.01713-.06091.0264-.09411.02687s-.06592-.00789-.09483-.02421-.05296-.04003-.06971-.0687c-.01675-.02866-.02558-.06126-.0256-.09446z"/></g></svg>