<svg width="12" height="10" viewBox="0 0 12 10" fill="none" xmlns="http://www.w3.org/2000/svg">
<path d="M5.52936 9.50013C7.72262 9.50013 9.50061 7.72214 9.50061 5.52887C9.50061 3.33561 7.72262 1.55762 5.52936 1.55762C3.3361 1.55762 1.55811 3.33561 1.55811 5.52887C1.55811 7.72214 3.3361 9.50013 5.52936 9.50013Z" stroke="white"/>
<path d="M2.1052 0.500122C1.72033 0.603199 1.36938 0.805791 1.08765 1.08753C0.805913 1.36926 0.603321 1.72021 0.500244 2.10508M8.95278 0.500122C9.33765 0.603199 9.68859 0.805791 9.97033 1.08753C10.2521 1.36926 10.4547 1.72021 10.5577 2.10508M5.52899 3.25958V5.38704C5.52899 5.46533 5.59253 5.52887 5.67082 5.52887H7.23095" stroke="white" stroke-linecap="round"/>
</svg>
