<svg width="13" height="11" viewBox="0 0 13 11" fill="none" xmlns="http://www.w3.org/2000/svg">
<path d="M1 1.45931V2.25343C1 4.45049 2.18585 6.37225 3.95122 7.44167V9.9299H12V8.87108C12 7.46284 9.14 6.75343 7.70732 6.75343H7.57317C5.02439 6.75343 2.87805 4.63578 2.87805 2.25343V1.45931M7.70732 0.929901C7.13807 0.929901 6.59214 1.15301 6.18962 1.55015C5.78711 1.94728 5.56098 2.48591 5.56098 3.04755C5.56098 3.60918 5.78711 4.14782 6.18962 4.54495C6.59214 4.94209 7.13807 5.1652 7.70732 5.1652C8.27656 5.1652 8.82249 4.94209 9.22501 4.54495C9.62753 4.14782 9.85366 3.60918 9.85366 3.04755C9.85366 2.48591 9.62753 1.94728 9.22501 1.55015C8.82249 1.15301 8.27656 0.929901 7.70732 0.929901Z" stroke="white" stroke-width="1.5"/>
</svg>
