<svg width="12" height="13" viewBox="0 0 12 13" fill="none" xmlns="http://www.w3.org/2000/svg">
<path d="M9.95531 2.09046C9.4153 1.54635 8.77276 1.11472 8.06486 0.820541C7.35695 0.526365 6.59774 0.375484 5.83115 0.376626C5.06436 0.375329 4.30492 0.526136 3.59681 0.820316C2.88869 1.1145 2.24596 1.54621 1.70581 2.09046C-0.568604 4.36429 -0.568604 8.06554 1.70581 10.34C2.24603 10.8843 2.88886 11.316 3.59708 11.6102C4.3053 11.9044 5.06484 12.0552 5.83173 12.0538C6.59828 12.055 7.35747 11.9042 8.06537 11.6101C8.77327 11.3161 9.41584 10.8845 9.9559 10.3405C12.2303 8.06671 12.2303 4.36546 9.95531 2.09046ZM5.93615 1.54854H5.72673C5.76231 1.54796 5.79615 1.54329 5.83173 1.54329C5.86731 1.54329 5.90056 1.54796 5.93615 1.54854ZM9.47231 9.13188H8.1639L7.43006 10.5995C6.918 10.7881 6.37683 10.8855 5.83115 10.8871C5.28444 10.8856 4.74226 10.7881 4.22931 10.599L3.49723 9.13771H2.19348C1.71248 8.53972 1.3872 7.83184 1.24673 7.07738L2.33056 5.63188L1.62123 4.21263C1.84821 3.73151 2.15578 3.29274 2.53065 2.91529C3.05619 2.3881 3.70022 1.99428 4.40898 1.76671L5.83056 2.71521L7.25273 1.76729C7.96143 1.9947 8.60546 2.38831 9.13106 2.91529C9.50556 3.29226 9.81292 3.73042 10.0399 4.21088L9.33056 5.63188L10.4144 7.07738C10.2746 7.82942 9.95098 8.53522 9.47231 9.13188Z" fill="white"/>
<path d="M3.7889 5.63188L4.6639 7.96521H6.99723L7.87223 5.63188L5.83056 4.17354L3.7889 5.63188Z" fill="white"/>
</svg>
