<svg fill="none" height="11" viewBox="0 0 13 11" width="13" xmlns="http://www.w3.org/2000/svg"><path d="m1 1.45931v.79412c0 2.19706 1.18585 4.11882 2.95122 5.18824v2.48823h8.04878v-1.05882c0-1.40824-2.86-2.11765-4.29268-2.11765h-.13415c-2.54878 0-4.69512-2.11765-4.69512-4.5v-.79412m4.82927-.529409c-.56925 0-1.11518.223109-1.5177.620249-.40251.39713-.62864.93576-.62864 1.4974 0 .56163.22613 1.10027.62864 1.4974.40252.39714.94845.62025 1.5177.62025.56924 0 1.11517-.22311 1.51769-.62025.40252-.39713.62865-.93577.62865-1.4974 0-.56164-.22613-1.10027-.62865-1.4974-.40252-.39714-.94845-.620249-1.51769-.620249z" stroke="#fff" stroke-width="1.5"/></svg>