<svg fill="none" height="13" viewBox="0 0 15 13" width="15" xmlns="http://www.w3.org/2000/svg"><path d="m12.0968 9.53053c.1399-.13985.306-.20978.4986-.20978.1925 0 .3584.06993.4978.20978l1.1013 1.11877c.1399.1399.2098.303.2098.4895 0 .1864-.0699.3496-.2098.4894-.1398.1399-.303.2098-.4894.2098-.1865 0-.3497-.0699-.4895-.2098l-1.1188-1.1013c-.1398-.1398-.2098-.3058-.2098-.4978 0-.19208.07-.35826.2098-.49857zm.6993-8.39086c.1398.13985.2097.30604.2097.49856s-.0699.35847-.2097.49786l-1.1013 1.1013c-.1399.13984-.3058.20977-.4979.20977s-.3582-.06993-.4986-.20977c-.1403-.13985-.2102-.3058-.2097-.49786.0004-.19206.0704-.35824.2097-.49856l1.1188-1.1013c.1399-.139845.303-.209769.4895-.209769.1864 0 .3496.069924.4895.209769zm-11.18785 0c.13985-.139845.30603-.209769.49856-.209769.19252 0 .35847.069924.49785.209769l1.1013 1.11878c.13985.13985.20977.30301.20977.48947s-.06992.34962-.20977.48947c-.13985.13984-.3058.20977-.49786.20977-.19205 0-.35824-.06993-.49855-.20977l-1.1013-1.1013c-.13985-.13985-.20977-.3058-.20977-.49786s.06992-.35824.20977-.49856zm.69924 8.39086c.13984.13984.20977.30603.20977.49857 0 .1925-.06993.3585-.20977.4978l-1.1013 1.1013c-.13985.1399-.305803.2098-.49786.2098s-.358243-.0699-.498556-.2098c-.1403141-.1398-.21023784-.3058-.20977168-.4978.00046615-.1921.07038988-.3583.20977168-.4986l1.118776-1.10127c.13985-.13985.30301-.20978.48947-.20978s.34962.06993.48947.20978zm2.69206 1.27607 2.2026-1.32852 2.2026 1.34602-.57687-2.51724 1.94042-1.67817-2.55225-.22725-1.0139-2.37741-1.01389 2.35993-2.55222.22725 1.94038 1.69565zm2.2026.3147-2.90184 1.7481c-.12819.0816-.26221.1165-.40206.1049-.13985-.0117-.26221-.0583-.3671-.1399-.10488-.0816-.18646-.1834-.24473-.3055-.05827-.1222-.06992-.2592-.03496-.4112l.76916-3.30389-2.5697-2.22008c-.11654-.10489-.18926-.22446-.21816-.35871-.0289-.13426-.02028-.26525.02587-.39297.04615-.12773.11607-.23262.20977-.31466.0937-.08205.22189-.13449.38458-.15733l3.3913-.29718 1.31108-3.1116c.05827-.13985.1487-.24474.2713-.31466s.24776-.10489.37549-.10489.25289.03497.37549.10489.21304.17481.27131.31466l1.31107 3.1116 3.39128.29718c.1632.02331.2914.07575.3846.15733s.1632.18646.2098.31466c.0466.12819.0554.25941.0265.39367-.0289.13425-.1018.25359-.2188.35801l-2.5697 2.22008.7691 3.30389c.035.1515.0234.2886-.0349.4112s-.1399.2244-.2448.3055c-.1048.0811-.2272.1277-.3671.1399-.1398.0121-.2738-.0229-.402-.1049z" fill="#fff"/></svg>