<svg fill="none" height="13" viewBox="0 0 12 13" width="12" xmlns="http://www.w3.org/2000/svg"><g fill="#fff"><path d="m9.95531 2.09046c-.54001-.54411-1.18255-.97574-1.89045-1.269919-.70791-.294176-1.46712-.445057-2.23371-.443915-.76679-.001297-1.52623.14951-2.23434.44369-.70812.294184-1.35085.725894-1.891 1.270144-2.274414 2.27383-2.274414 5.97508 0 8.24954.54022.5443 1.18305.976 1.89127 1.2702s1.46776.445 2.23465.4436c.76655.0012 1.52574-.1496 2.23364-.4437.7079-.294 1.35047-.7256 1.89053-1.2696 2.2744-2.27379 2.2744-5.97504-.00059-8.25004zm-4.01916-.54192h-.20942c.03558-.00058.06942-.00525.105-.00525s.06883.00467.10442.00525zm3.53616 7.58334h-1.30841l-.73384 1.46762c-.51206.1886-1.05323.286-1.59891.2876-.54671-.0015-1.08889-.099-1.60184-.2881l-.73208-1.46129h-1.30375c-.481-.59799-.80628-1.30587-.94675-2.06033l1.08383-1.4455-.70933-1.41925c.22698-.48112.53455-.91989.90942-1.29734.52554-.52719 1.16957-.92101 1.87833-1.14858l1.42158.9485 1.42217-.94792c.7087.22741 1.35273.62102 1.87833 1.148.3745.37697.68186.81513.90884 1.29559l-.70934 1.421 1.08384 1.4455c-.1398.75204-.46342 1.45784-.94209 2.0545z"/><path d="m3.7889 5.63188.875 2.33333h2.33333l.875-2.33333-2.04167-1.45834z"/></g></svg>